<svg id="Layer_1" data-name="Layer 1" xmlns="http://www.w3.org/2000/svg" width="3.28in" height="3.31in" viewBox="0 0 236.27 238.39"><defs><style>.cls-1{fill:#fff;}.cls-2{fill:#e9b02b;}.cls-3{fill:#283fe5;}</style></defs><title>Final-M-SinglePiece</title><path class="cls-1" d="M253,135.13a1.91,1.91,0,0,0-.39-.54l.4.57Z" transform="translate(-16.86 -10.94)"/><path class="cls-2" d="M225.21,104A3.24,3.24,0,0,1,228,103a21.72,21.72,0,0,1,8.64,3.1,28.21,28.21,0,0,1,6.94,5.71q2.68,3.14,2.46,5a7.11,7.11,0,0,1-.76,2.47q-.6,1.14-1.51,1a6,6,0,0,1-2.09-.76q-.48-.23-2.6-1.4a27.39,27.39,0,0,0-5.32-2.15,41.89,41.89,0,0,0-7.16-1.46q-3.64-.44-3-5.4l.19-1.57A5.92,5.92,0,0,1,225.21,104Z" transform="translate(-16.86 -10.94)"/><path class="cls-3" d="M193.56,128.33a3.57,3.57,0,1,1-3.28-6.34,58.7,58.7,0,0,1,21.91-6.36l6.46-41.16c.87-5.55,1.74-11.19.91-16.75S215.91,46.64,211,43.9s-10.89-2.25-15.85.1-8.93,6.4-12.25,10.77c-20,26.33-19.42,48.4-28.37,94.24h-5.23c0-.3.08-.6.12-.89L162.52,66.4c1.07-6.67,2.14-13.49.91-20.14s-5.21-13.18-11.52-15.59c-5.74-2.19-12.42-.56-17.45,3s-8.66,8.7-11.71,14c-6.58,11.51-10.83,23.92-14.09,36.72.19-22.68-4.4-40.57-13.82-53.48A47.16,47.16,0,0,0,62.32,11.32l-.27,0A37.7,37.7,0,1,0,93,60.06a48.08,48.08,0,0,0-2-6.32,47.08,47.08,0,0,0-25.34-26,3.57,3.57,0,0,1,2.81-6.56c19,8.14,30.81,25.87,32.75,46.2,1.42,14.8.05,30.38-2.14,45-1.13,7.6-2.6,15.15-4.29,22.65-.44,2-6.08,21.73-5.63,22a72.93,72.93,0,0,1,10.1,6.63,3.57,3.57,0,0,1-4.38,5.64C71.25,151,45.63,153.78,27.95,176.52a52.83,52.83,0,0,0,7.74,72.8L91,228.64a17.42,17.42,0,0,0,1.74-1.33c5.44-4.8,6.94-12.55,8.12-19.7l17.09-103c.36-2.2.78-4.51,2.17-6.24s4.13-2.62,5.91-1.27,1.71,4.11,1.41,6.38L112.14,220q19-5.86,37.5-13c3.36-1.3,6.84-2.71,9.26-5.37,3-3.32,3.91-8,4.68-12.41L178,106.13a11.7,11.7,0,0,1,1.88-5.36c1.18-1.5,3.47-2.33,5.07-1.28,1.81,1.18,1.75,3.81,1.47,6l-7.73,60.94c-.85,6.73-1.7,13.61-.27,20.24,1.16,5.38,4.13,10.65,8.63,13.65a15.25,15.25,0,0,0,3.36,1.7c7.07,2.52,14.88-.53,21.34-4.37a88.2,88.2,0,0,0,41.28-60.33c0-.18.06-.35.08-.53A52,52,0,0,0,193.56,128.33Z" transform="translate(-16.86 -10.94)"/></svg>