<svg id="svg10" xmlns="http://www.w3.org/2000/svg" width="4.5in" height="2.09in" viewBox="0 0 324.33 150.15"><title>Fuul — Black</title><path d="M17.28,44.61h0a26.78,26.78,0,0,1,26.58-27V0C19.57,0,0,20,0,44.5V150.15H17.28V82.52H44.13V66.14H17.28Z"/><path d="M134.41,105.65a26.59,26.59,0,1,1-53.17,0V0H63.8V105.65c0,24.62,19.67,44.45,43.86,44.45s43.86-19.94,43.86-44.45V0H134.36V105.65Z"/><path d="M298.49,105.54h0V0h-17V105.65c0,24.62,19.19,44.5,42.8,44.5v-17.6C310.08,132.5,298.49,120.48,298.49,105.54Z"/><path d="M243.89,105.65a27.22,27.22,0,0,1-54.45,0V0H171.63V105.65a44.88,44.88,0,0,0,89.75,0V0H243.83V105.65Z"/></svg>