<svg id="Layer_1" data-name="Layer 1" xmlns="http://www.w3.org/2000/svg" xmlns:xlink="http://www.w3.org/1999/xlink" width="11.99in" height="3.82in" viewBox="0 0 863.42 275.08"><defs><style>.cls-1,.cls-2{fill:#fff;}.cls-1,.cls-4{stroke:#000;stroke-miterlimit:10;stroke-width:3.5px;}.cls-3{clip-path:url(#clip-path);}.cls-4{fill:none;}</style><clipPath id="clip-path"><rect class="cls-1" x="-167.58" y="-461.75" width="1198.58" height="1198.58"/></clipPath></defs><title>loud-luxury-Border-01</title><g id="LOGO-LIGHT"><g id="LL-LOGO"><rect class="cls-2" x="-167.58" y="-461.75" width="1198.58" height="1198.58"/><g class="cls-3"><path class="cls-1" d="M711.6,2.25H672.9a.47.47,0,0,0-.47.47V45.25a.47.47,0,0,1-.47.47H564.6a.47.47,0,0,1-.47-.47V2.69a.47.47,0,0,0-.47-.47H542.49a.47.47,0,0,0-.47.47v57.1c0,15.94-8.18,24.12-21.68,24.12s-21.68-8.47-21.68-24.84V2.68a.47.47,0,0,0-.47-.47H477a.47.47,0,0,0-.47.47V45.25a.47.47,0,0,1-.47.47h-101a.46.46,0,0,1-.46-.4C371.37,20,350.29.5,321.81.5s-49.65,19.6-53.06,44.82a.46.46,0,0,1-.46.4H120.6a.47.47,0,0,1-.47-.47V2.69a.47.47,0,0,0-.47-.47H98.49a.47.47,0,0,0-.47.47V45.25a.47.47,0,0,1-.47.47H1a.47.47,0,0,0-.47.47v12.6a.47.47,0,0,0,.47.47H97.6a.47.47,0,0,1,.47.47v42.52a.47.47,0,0,0,.47.47h71.28a.47.47,0,0,0,.47-.47V83.09a.47.47,0,0,0-.47-.47H120.6a.47.47,0,0,1-.47-.47V59.72a.47.47,0,0,1,.47-.47H268.29a.46.46,0,0,1,.46.4c3.27,25.3,24.34,44.79,52.81,44.79s49.63-19.58,53-44.79a.46.46,0,0,1,.46-.4H476.6v.4c0,29.58,16.51,44.65,43.5,44.65,26.76,0,43.77-14.68,44.07-44.58a.47.47,0,0,1,.46-.46H672a.47.47,0,0,1,.47.47v42.52a.47.47,0,0,0,.47.47H711.6c28.85,0,49.54-18.34,52.91-43.07a.46.46,0,0,1,.46-.4h97.46a.47.47,0,0,0,.47-.47V46.18a.47.47,0,0,0-.47-.47H765a.46.46,0,0,1-.46-.4C761.34,20.47,740.6,2.25,711.6,2.25ZM352,52.79c0,17.23-12.35,31.3-30.15,31.3S291.38,69.73,291.38,52.5v-.29c0-17.23,12.35-31.3,30.15-31.3S352,35.27,352,52.5Zm389.92,0c0,17.8-12.2,30-30.29,30H694.51V22.2H711.6c18.09,0,30.29,12.49,30.29,30.29Z"/><path class="cls-1" d="M823.8,172.5h-24a.47.47,0,0,0-.4.23l-23.87,39.45a.47.47,0,0,1-.8,0l-23.44-39.44a.47.47,0,0,0-.4-.23H726.16a.47.47,0,0,0-.4.72l27.38,43.16a.47.47,0,0,1-.4.72H681.68a.46.46,0,0,1-.44-.59A37.62,37.62,0,0,0,682.67,206v-.29c0-20.67-14.21-33.17-37.9-33.17H599.3a.47.47,0,0,0-.47.47v43.66a.47.47,0,0,1-.47.47H540.13a.47.47,0,0,1-.47-.47V173a.47.47,0,0,0-.47-.47H518a.47.47,0,0,0-.47.47v57.11c0,15.94-8.18,24.12-21.68,24.12s-21.68-8.47-21.68-24.84V173a.47.47,0,0,0-.47-.47H452.6a.47.47,0,0,0-.47.47v43.66a.47.47,0,0,1-.47.47H371a.47.47,0,0,1-.39-.73l29.51-43.13a.47.47,0,0,0-.39-.73h-24a.47.47,0,0,0-.39.21L354.6,204.48a.47.47,0,0,1-.78,0l-20.58-31.77a.47.47,0,0,0-.39-.21h-24.7a.47.47,0,0,0-.39.73l29.34,43.13a.47.47,0,0,1-.39.73H256.18a.47.47,0,0,1-.47-.47V173a.47.47,0,0,0-.47-.47H234.07a.47.47,0,0,0-.47.47v57.11c0,15.94-8.18,24.12-21.68,24.12s-21.68-8.47-21.68-24.84V173a.47.47,0,0,0-.47-.47H168.6a.47.47,0,0,0-.47.47v43.66a.47.47,0,0,1-.47.47h-98a.47.47,0,0,1-.47-.47V173a.47.47,0,0,0-.47-.47H47.55a.47.47,0,0,0-.47.47v43.66a.47.47,0,0,1-.47.47H1a.47.47,0,0,0-.47.47v12.6a.47.47,0,0,0,.47.47H46.6a.47.47,0,0,1,.47.47v41.43a.47.47,0,0,0,.47.47h71.28a.47.47,0,0,0,.47-.47V253.37a.47.47,0,0,0-.47-.47H69.6a.47.47,0,0,1-.47-.47V231.1a.47.47,0,0,1,.47-.47h98a.47.47,0,0,1,.46.46c.43,28.8,16.85,43.49,43.48,43.49,26.43,0,43.35-14.33,44-43.49a.47.47,0,0,1,.46-.46h77.84a.47.47,0,0,1,.39.73l-28,40.9a.47.47,0,0,0,.39.73h24a.47.47,0,0,0,.39-.21l22.15-33.65a.47.47,0,0,1,.78,0l22,33.65a.47.47,0,0,0,.39.21H401a.47.47,0,0,0,.39-.73l-27.83-40.9a.47.47,0,0,1,.39-.73H451.6a.47.47,0,0,1,.46.46c.43,28.8,16.85,43.49,43.49,43.49,26.43,0,43.34-14.33,44-43.49a.47.47,0,0,1,.46-.46h58.27a.47.47,0,0,1,.47.47v41.43a.47.47,0,0,0,.47.47h21.17a.47.47,0,0,0,.47-.47V241.31a.47.47,0,0,1,.47-.47H638a.47.47,0,0,1,.39.21l21.26,31.74a.47.47,0,0,0,.39.21h24.71a.47.47,0,0,0,.39-.73L661.4,237.59a.46.46,0,0,1,.12-.64l.1-.05a35.51,35.51,0,0,0,10.44-6.16.45.45,0,0,1,.29-.11h89.5a.47.47,0,0,1,.4.22l1.53,2.41a.47.47,0,0,1,.07.25v39a.47.47,0,0,0,.47.47H785.6a.47.47,0,0,0,.47-.47V233.06a.47.47,0,0,1,.07-.25l1.27-2a.47.47,0,0,1,.39-.22h74.68a.47.47,0,0,0,.47-.47v-12.6a.47.47,0,0,0-.47-.47H797a.47.47,0,0,1-.39-.72l27.55-43.08a.47.47,0,0,0-.4-.75ZM660.27,207.1c0,8.47-6.17,14.21-16.94,14.21H621.4a.47.47,0,0,1-.47-.47V192.92a.47.47,0,0,1,.47-.47h21.5c10.77,0,17.37,4.88,17.37,14.36Z"/></g><rect class="cls-4" x="-167.58" y="-461.75" width="1198.58" height="1198.58"/></g></g></svg>