<?xml version="1.0" encoding="utf-8"?>
<!-- Generator: Adobe Illustrator 21.0.1, SVG Export Plug-In . SVG Version: 6.00 Build 0)  -->
<svg version="1.1" id="Layer_1" xmlns="http://www.w3.org/2000/svg" xmlns:xlink="http://www.w3.org/1999/xlink" x="0px" y="0px"
	 viewBox="0 0 100 56.8" style="enable-background:new 0 0 100 56.8;" xml:space="preserve">
<style type="text/css">
	.st0{display:none;opacity:0.35;}
	.st1{display:inline;}
	.st2{fill:none;stroke:#000000;stroke-miterlimit:10;}
	.st3{fill:none;stroke:#000000;stroke-linecap:round;stroke-linejoin:round;stroke-miterlimit:10;}
</style>
<g class="st0">
	<g class="st1">
		<g>
			<g>
				<path class="st2" d="M95,37.2V23.6c0-0.3-0.2-0.5-0.5-0.5h-2.6H55c-2.3,0-4.3,1.9-5.1,4.6h-1.7v-0.3c0-0.2-0.1-0.3-0.2-0.4
					c-0.6-0.5-1.3-0.7-2-0.7h-2.4c-0.8,0-1.6,0.4-2.2,1c-0.8-1-1.8-1.6-3-1.6H9c-2.2,0-4,2.1-4,4.8c0,2.6,1.8,4.8,4,4.8h29.4
					c1.2,0,2.2-0.6,3-1.6c0.6,0.6,1.4,1,2.2,1H46c0.7,0,1.4-0.2,2-0.7c0.1-0.1,0.2-0.2,0.2-0.4v-0.3h1.7c0.8,2.7,2.8,4.6,5.1,4.6
					h36.9h2.6C94.8,37.7,95,37.5,95,37.2z"/>
			</g>
		</g>
	</g>
</g>
<path class="st3" d="M93.2,30.4H47.4c-0.3,0-0.6-0.4-0.6-0.9v-2.2c0-0.5,0.3-0.9,0.6-0.9h44.7c0.1,0,0.2,0.1,0.2,0.2l1.5,2.8
	C93.8,30,93.6,30.4,93.2,30.4z"/>
<path class="st2" d="M45.9,31.2h-3.1c-0.5,0-0.9-0.4-0.9-0.9v-3.8c0-0.5,0.4-0.9,0.9-0.9h3.1c0.5,0,0.9,0.4,0.9,0.9v3.8
	C46.8,30.8,46.4,31.2,45.9,31.2z"/>
<path class="st2" d="M8.4,22.3l32.3,2c0.6,0,1.2,0.5,1.2,1.2v5.8c0,0.6-0.5,1.2-1.2,1.2l-32.3,2c-0.6,0-1.2-0.5-1.2-1.2v-9.8
	C7.2,22.8,7.8,22.3,8.4,22.3z"/>
</svg>
